<svg width="128" height="45" viewBox="0 0 128 45" fill="none" xmlns="http://www.w3.org/2000/svg">
<g filter="url(#filter0_d_1229_116)">
<rect x="1" y="4" width="15" height="32" rx="4" fill="black"/>
</g>
<g filter="url(#filter1_d_1229_116)">
<rect x="35" y="21" width="15" height="15" rx="4" transform="rotate(90 35 21)" fill="black"/>
<path d="M35 11.5C35 15.6421 31.6422 19 27.5 19C23.3579 19 20 15.6421 20 11.5C20 7.35786 23.3579 4 27.5 4C31.6422 4 35 7.35786 35 11.5Z" fill="black"/>
<g filter="url(#filter2_d_1229_116)">
<path d="M31.15 11.5C31.15 13.5589 30.7325 15.418 30.0622 16.7586C29.3889 18.1052 28.4773 18.9 27.5 18.9C26.5227 18.9 25.6111 18.1052 24.9378 16.7586C24.2675 15.418 23.85 13.5589 23.85 11.5C23.85 9.44109 24.2675 7.58204 24.9378 6.24142C25.6111 4.89482 26.5227 4.1 27.5 4.1C28.4773 4.1 29.3889 4.89482 30.0622 6.24142C30.7325 7.58204 31.15 9.44109 31.15 11.5Z" stroke="white" stroke-width="0.2" shape-rendering="crispEdges"/>
</g>
<g filter="url(#filter3_d_1229_116)">
<path d="M28.9 11.5C28.9 13.5665 28.7324 15.4347 28.4626 16.7837C28.3275 17.459 28.1679 17.9991 27.9935 18.3679C27.9062 18.5525 27.8176 18.6889 27.7308 18.7777C27.6441 18.8664 27.5672 18.9 27.5 18.9C27.4328 18.9 27.3559 18.8664 27.2692 18.7777C27.1824 18.6889 27.0938 18.5525 27.0065 18.3679C26.8321 17.9991 26.6725 17.459 26.5374 16.7837C26.2676 15.4347 26.1 13.5665 26.1 11.5C26.1 9.43346 26.2676 7.56534 26.5374 6.21631C26.6725 5.54097 26.8321 5.00093 27.0065 4.63213C27.0938 4.44748 27.1824 4.3111 27.2692 4.22227C27.3559 4.1336 27.4328 4.1 27.5 4.1C27.5672 4.1 27.6441 4.1336 27.7308 4.22227C27.8176 4.3111 27.9062 4.44748 27.9935 4.63213C28.1679 5.00093 28.3275 5.54097 28.4626 6.21631C28.7324 7.56534 28.9 9.43346 28.9 11.5Z" stroke="white" stroke-width="0.2" shape-rendering="crispEdges"/>
</g>
<g filter="url(#filter4_d_1229_116)">
<path d="M33.4 11.5C33.4 15.6089 30.7388 18.9 27.5 18.9C24.2612 18.9 21.6 15.6089 21.6 11.5C21.6 7.39112 24.2612 4.1 27.5 4.1C30.7388 4.1 33.4 7.39112 33.4 11.5Z" stroke="white" stroke-width="0.2" shape-rendering="crispEdges"/>
</g>
<g filter="url(#filter5_d_1229_116)">
<path d="M27.5 7.85C29.5589 7.85 31.418 8.26748 32.7586 8.93779C34.1052 9.61109 34.9 10.5227 34.9 11.5C34.9 12.4773 34.1052 13.3889 32.7586 14.0622C31.418 14.7325 29.5589 15.15 27.5 15.15C25.4411 15.15 23.582 14.7325 22.2414 14.0622C20.8948 13.3889 20.1 12.4773 20.1 11.5C20.1 10.5227 20.8948 9.61109 22.2414 8.93779C23.582 8.26748 25.4411 7.85 27.5 7.85Z" stroke="white" stroke-width="0.2" shape-rendering="crispEdges"/>
</g>
<g filter="url(#filter6_d_1229_116)">
<path d="M27.5 10.1C29.5665 10.1 31.4347 10.2676 32.7837 10.5374C33.459 10.6725 33.9991 10.8321 34.3679 11.0065C34.5525 11.0938 34.6889 11.1824 34.7777 11.2692C34.8664 11.3559 34.9 11.4328 34.9 11.5C34.9 11.5672 34.8664 11.6441 34.7777 11.7308C34.6889 11.8176 34.5525 11.9062 34.3679 11.9935C33.9991 12.1679 33.459 12.3275 32.7837 12.4626C31.4347 12.7324 29.5665 12.9 27.5 12.9C25.4335 12.9 23.5653 12.7324 22.2163 12.4626C21.541 12.3275 21.0009 12.1679 20.6321 11.9935C20.4475 11.9062 20.3111 11.8176 20.2223 11.7308C20.1336 11.6441 20.1 11.5672 20.1 11.5C20.1 11.4328 20.1336 11.3559 20.2223 11.2692C20.3111 11.1824 20.4475 11.0938 20.6321 11.0065C21.0009 10.8321 21.541 10.6725 22.2163 10.5374C23.5653 10.2676 25.4335 10.1 27.5 10.1Z" stroke="white" stroke-width="0.2" shape-rendering="crispEdges"/>
</g>
<g filter="url(#filter7_d_1229_116)">
<path d="M27.5 5.6C31.6089 5.6 34.9 8.26119 34.9 11.5C34.9 14.7388 31.6089 17.4 27.5 17.4C23.3911 17.4 20.1 14.7388 20.1 11.5C20.1 8.26119 23.3911 5.6 27.5 5.6Z" stroke="white" stroke-width="0.2" shape-rendering="crispEdges"/>
</g>
</g>
<g filter="url(#filter8_d_1229_116)">
<path d="M41.9683 16H39.1633V3.97975H41.9683V16ZM54.7813 3.97975V16H53.3293C53.1148 16 52.9333 15.967 52.7848 15.901C52.6418 15.8295 52.4988 15.7085 52.3558 15.538L46.688 8.36875C46.71 8.58325 46.7238 8.79225 46.7293 8.99575C46.7403 9.19375 46.7458 9.38075 46.7458 9.55675V16H44.2873V3.97975H45.7558C45.8768 3.97975 45.9785 3.98525 46.061 3.99625C46.1435 4.00725 46.2178 4.02925 46.2838 4.06225C46.3498 4.08975 46.413 4.131 46.4735 4.186C46.534 4.241 46.6028 4.31525 46.6798 4.40875L52.397 11.6275C52.3695 11.3965 52.3503 11.1737 52.3393 10.9592C52.3283 10.7392 52.3228 10.533 52.3228 10.3405V3.97975H54.7813ZM65.7512 6.19075H62.3687V16H59.5802V6.19075H56.1977V3.97975H65.7512V6.19075ZM69.9731 6.12475V8.92975H73.7516V10.9922H69.9731V13.855H74.9066V16H67.1681V3.97975H74.9066V6.12475H69.9731ZM80.5371 9.631C80.9166 9.631 81.2384 9.58425 81.5024 9.49075C81.7719 9.39175 81.9919 9.257 82.1624 9.0865C82.3329 8.916 82.4566 8.718 82.5336 8.4925C82.6106 8.2615 82.6491 8.014 82.6491 7.75C82.6491 7.222 82.4759 6.8095 82.1294 6.5125C81.7884 6.2155 81.2576 6.067 80.5371 6.067H79.4151V9.631H80.5371ZM86.4606 16H83.9361C83.4686 16 83.1331 15.824 82.9296 15.472L80.9331 11.9822C80.8396 11.8337 80.7351 11.7265 80.6196 11.6605C80.5041 11.589 80.3391 11.5532 80.1246 11.5532H79.4151V16H76.6266V3.97975H80.5371C81.4061 3.97975 82.1459 4.0705 82.7564 4.252C83.3724 4.428 83.8729 4.6755 84.2579 4.9945C84.6484 5.3135 84.9316 5.69025 85.1076 6.12475C85.2836 6.55925 85.3716 7.03225 85.3716 7.54375C85.3716 7.93425 85.3194 8.30275 85.2149 8.64925C85.1104 8.99575 84.9564 9.3175 84.7529 9.6145C84.5494 9.906 84.2964 10.1672 83.9939 10.3982C83.6969 10.6292 83.3531 10.819 82.9626 10.9675C83.1441 11.061 83.3146 11.1792 83.4741 11.3222C83.6336 11.4597 83.7766 11.6247 83.9031 11.8172L86.4606 16ZM97.9649 3.97975V16H96.5129C96.2984 16 96.1169 15.967 95.9684 15.901C95.8254 15.8295 95.6824 15.7085 95.5394 15.538L89.8716 8.36875C89.8936 8.58325 89.9074 8.79225 89.9129 8.99575C89.9239 9.19375 89.9294 9.38075 89.9294 9.55675V16H87.4709V3.97975H88.9394C89.0604 3.97975 89.1621 3.98525 89.2446 3.99625C89.3271 4.00725 89.4014 4.02925 89.4674 4.06225C89.5334 4.08975 89.5966 4.131 89.6571 4.186C89.7176 4.241 89.7864 4.31525 89.8634 4.40875L95.5806 11.6275C95.5531 11.3965 95.5339 11.1737 95.5229 10.9592C95.5119 10.7392 95.5064 10.533 95.5064 10.3405V3.97975H97.9649ZM103.102 6.12475V8.92975H106.881V10.9922H103.102V13.855H108.036V16H100.297V3.97975H108.036V6.12475H103.102ZM118.393 6.19075H115.011V16H112.222V6.19075H108.84V3.97975H118.393V6.19075ZM43.4038 29.8785C44.1298 29.8785 44.6523 29.7052 44.9713 29.3587C45.2903 29.0122 45.4498 28.5282 45.4498 27.9067C45.4498 27.6317 45.4085 27.3815 45.326 27.156C45.2435 26.9305 45.117 26.738 44.9465 26.5785C44.7815 26.4135 44.5698 26.287 44.3113 26.199C44.0583 26.111 43.7558 26.067 43.4038 26.067H41.9518V29.8785H43.4038ZM43.4038 23.9797C44.2508 23.9797 44.9768 24.0815 45.5818 24.285C46.1923 24.483 46.6928 24.758 47.0833 25.11C47.4793 25.462 47.7708 25.8772 47.9578 26.3557C48.1448 26.8342 48.2383 27.3512 48.2383 27.9067C48.2383 28.5062 48.142 29.0562 47.9495 29.5567C47.757 30.0572 47.4628 30.4862 47.0668 30.8438C46.6708 31.2012 46.1675 31.4817 45.557 31.6852C44.952 31.8832 44.2343 31.9822 43.4038 31.9822H41.9518V36H39.1633V23.9797H43.4038ZM52.458 26.1247V28.9297H56.2365V30.9922H52.458V33.855H57.3915V36H49.653V23.9797H57.3915V26.1247H52.458ZM70.6673 29.9857C70.6673 30.8547 70.516 31.6632 70.2135 32.4112C69.9165 33.1592 69.4958 33.811 68.9513 34.3665C68.4068 34.9165 67.7495 35.3482 66.9795 35.6617C66.215 35.9753 65.3653 36.132 64.4303 36.132C63.4953 36.132 62.6428 35.9753 61.8728 35.6617C61.1028 35.3482 60.4428 34.9165 59.8928 34.3665C59.3483 33.811 58.9248 33.1592 58.6223 32.4112C58.3253 31.6632 58.1768 30.8547 58.1768 29.9857C58.1768 29.1167 58.3253 28.3082 58.6223 27.5602C58.9248 26.8122 59.3483 26.1632 59.8928 25.6132C60.4428 25.0632 61.1028 24.6315 61.8728 24.318C62.6428 24.0045 63.4953 23.8477 64.4303 23.8477C65.3653 23.8477 66.215 24.0072 66.9795 24.3262C67.7495 24.6397 68.4068 25.0715 68.9513 25.6215C69.4958 26.1715 69.9165 26.8205 70.2135 27.5685C70.516 28.3165 70.6673 29.1222 70.6673 29.9857ZM67.8128 29.9857C67.8128 29.3917 67.7358 28.8582 67.5818 28.3852C67.4278 27.9067 67.205 27.5025 66.9135 27.1725C66.6275 26.8425 66.2755 26.5895 65.8575 26.4135C65.4395 26.2375 64.9638 26.1495 64.4303 26.1495C63.8913 26.1495 63.41 26.2375 62.9865 26.4135C62.5685 26.5895 62.2138 26.8425 61.9223 27.1725C61.6363 27.5025 61.4163 27.9067 61.2623 28.3852C61.1083 28.8582 61.0313 29.3917 61.0313 29.9857C61.0313 30.5852 61.1083 31.1242 61.2623 31.6027C61.4163 32.0757 61.6363 32.4772 61.9223 32.8072C62.2138 33.1372 62.5685 33.3902 62.9865 33.5662C63.41 33.7367 63.8913 33.822 64.4303 33.822C64.9638 33.822 65.4395 33.7367 65.8575 33.5662C66.2755 33.3902 66.6275 33.1372 66.9135 32.8072C67.205 32.4772 67.4278 32.0757 67.5818 31.6027C67.7358 31.1242 67.8128 30.5852 67.8128 29.9857ZM76.5488 29.8785C77.2748 29.8785 77.7973 29.7052 78.1163 29.3587C78.4353 29.0122 78.5948 28.5282 78.5948 27.9067C78.5948 27.6317 78.5535 27.3815 78.471 27.156C78.3885 26.9305 78.262 26.738 78.0915 26.5785C77.9265 26.4135 77.7148 26.287 77.4563 26.199C77.2033 26.111 76.9008 26.067 76.5488 26.067H75.0968V29.8785H76.5488ZM76.5488 23.9797C77.3958 23.9797 78.1218 24.0815 78.7268 24.285C79.3373 24.483 79.8378 24.758 80.2283 25.11C80.6243 25.462 80.9158 25.8772 81.1028 26.3557C81.2898 26.8342 81.3833 27.3512 81.3833 27.9067C81.3833 28.5062 81.287 29.0562 81.0945 29.5567C80.902 30.0572 80.6078 30.4862 80.2118 30.8438C79.8158 31.2012 79.3125 31.4817 78.702 31.6852C78.097 31.8832 77.3793 31.9822 76.5488 31.9822H75.0968V36H72.3083V23.9797H76.5488ZM90.0415 33.7725V36H82.798V23.9797H85.5865V33.7725H90.0415ZM94.272 26.1247V28.9297H98.0505V30.9922H94.272V33.855H99.2055V36H91.467V23.9797H99.2055V26.1247H94.272Z" fill="black"/>
</g>
<defs>
<filter id="filter0_d_1229_116" x="0" y="2" width="25" height="42" filterUnits="userSpaceOnUse" color-interpolation-filters="sRGB">
<feFlood flood-opacity="0" result="BackgroundImageFix"/>
<feColorMatrix in="SourceAlpha" type="matrix" values="0 0 0 0 0 0 0 0 0 0 0 0 0 0 0 0 0 0 127 0" result="hardAlpha"/>
<feOffset dx="4" dy="3"/>
<feGaussianBlur stdDeviation="2.5"/>
<feComposite in2="hardAlpha" operator="out"/>
<feColorMatrix type="matrix" values="0 0 0 0 0 0 0 0 0 0 0 0 0 0 0 0 0 0 0.25 0"/>
<feBlend mode="normal" in2="BackgroundImageFix" result="effect1_dropShadow_1229_116"/>
<feBlend mode="normal" in="SourceGraphic" in2="effect1_dropShadow_1229_116" result="shape"/>
</filter>
<filter id="filter1_d_1229_116" x="19" y="2" width="25" height="42" filterUnits="userSpaceOnUse" color-interpolation-filters="sRGB">
<feFlood flood-opacity="0" result="BackgroundImageFix"/>
<feColorMatrix in="SourceAlpha" type="matrix" values="0 0 0 0 0 0 0 0 0 0 0 0 0 0 0 0 0 0 127 0" result="hardAlpha"/>
<feOffset dx="4" dy="3"/>
<feGaussianBlur stdDeviation="2.5"/>
<feComposite in2="hardAlpha" operator="out"/>
<feColorMatrix type="matrix" values="0 0 0 0 0 0 0 0 0 0 0 0 0 0 0 0 0 0 0.25 0"/>
<feBlend mode="normal" in2="BackgroundImageFix" result="effect1_dropShadow_1229_116"/>
<feBlend mode="normal" in="SourceGraphic" in2="effect1_dropShadow_1229_116" result="shape"/>
</filter>
<filter id="filter2_d_1229_116" x="19.75" y="4" width="15.5" height="23" filterUnits="userSpaceOnUse" color-interpolation-filters="sRGB">
<feFlood flood-opacity="0" result="BackgroundImageFix"/>
<feColorMatrix in="SourceAlpha" type="matrix" values="0 0 0 0 0 0 0 0 0 0 0 0 0 0 0 0 0 0 127 0" result="hardAlpha"/>
<feOffset dy="4"/>
<feGaussianBlur stdDeviation="2"/>
<feComposite in2="hardAlpha" operator="out"/>
<feColorMatrix type="matrix" values="0 0 0 0 0 0 0 0 0 0 0 0 0 0 0 0 0 0 0.25 0"/>
<feBlend mode="normal" in2="BackgroundImageFix" result="effect1_dropShadow_1229_116"/>
<feBlend mode="normal" in="SourceGraphic" in2="effect1_dropShadow_1229_116" result="shape"/>
</filter>
<filter id="filter3_d_1229_116" x="22" y="4" width="11" height="23" filterUnits="userSpaceOnUse" color-interpolation-filters="sRGB">
<feFlood flood-opacity="0" result="BackgroundImageFix"/>
<feColorMatrix in="SourceAlpha" type="matrix" values="0 0 0 0 0 0 0 0 0 0 0 0 0 0 0 0 0 0 127 0" result="hardAlpha"/>
<feOffset dy="4"/>
<feGaussianBlur stdDeviation="2"/>
<feComposite in2="hardAlpha" operator="out"/>
<feColorMatrix type="matrix" values="0 0 0 0 0 0 0 0 0 0 0 0 0 0 0 0 0 0 0.25 0"/>
<feBlend mode="normal" in2="BackgroundImageFix" result="effect1_dropShadow_1229_116"/>
<feBlend mode="normal" in="SourceGraphic" in2="effect1_dropShadow_1229_116" result="shape"/>
</filter>
<filter id="filter4_d_1229_116" x="17.5" y="4" width="20" height="23" filterUnits="userSpaceOnUse" color-interpolation-filters="sRGB">
<feFlood flood-opacity="0" result="BackgroundImageFix"/>
<feColorMatrix in="SourceAlpha" type="matrix" values="0 0 0 0 0 0 0 0 0 0 0 0 0 0 0 0 0 0 127 0" result="hardAlpha"/>
<feOffset dy="4"/>
<feGaussianBlur stdDeviation="2"/>
<feComposite in2="hardAlpha" operator="out"/>
<feColorMatrix type="matrix" values="0 0 0 0 0 0 0 0 0 0 0 0 0 0 0 0 0 0 0.25 0"/>
<feBlend mode="normal" in2="BackgroundImageFix" result="effect1_dropShadow_1229_116"/>
<feBlend mode="normal" in="SourceGraphic" in2="effect1_dropShadow_1229_116" result="shape"/>
</filter>
<filter id="filter5_d_1229_116" x="16" y="7.75" width="23" height="15.5" filterUnits="userSpaceOnUse" color-interpolation-filters="sRGB">
<feFlood flood-opacity="0" result="BackgroundImageFix"/>
<feColorMatrix in="SourceAlpha" type="matrix" values="0 0 0 0 0 0 0 0 0 0 0 0 0 0 0 0 0 0 127 0" result="hardAlpha"/>
<feOffset dy="4"/>
<feGaussianBlur stdDeviation="2"/>
<feComposite in2="hardAlpha" operator="out"/>
<feColorMatrix type="matrix" values="0 0 0 0 0 0 0 0 0 0 0 0 0 0 0 0 0 0 0.25 0"/>
<feBlend mode="normal" in2="BackgroundImageFix" result="effect1_dropShadow_1229_116"/>
<feBlend mode="normal" in="SourceGraphic" in2="effect1_dropShadow_1229_116" result="shape"/>
</filter>
<filter id="filter6_d_1229_116" x="16" y="10" width="23" height="11" filterUnits="userSpaceOnUse" color-interpolation-filters="sRGB">
<feFlood flood-opacity="0" result="BackgroundImageFix"/>
<feColorMatrix in="SourceAlpha" type="matrix" values="0 0 0 0 0 0 0 0 0 0 0 0 0 0 0 0 0 0 127 0" result="hardAlpha"/>
<feOffset dy="4"/>
<feGaussianBlur stdDeviation="2"/>
<feComposite in2="hardAlpha" operator="out"/>
<feColorMatrix type="matrix" values="0 0 0 0 0 0 0 0 0 0 0 0 0 0 0 0 0 0 0.25 0"/>
<feBlend mode="normal" in2="BackgroundImageFix" result="effect1_dropShadow_1229_116"/>
<feBlend mode="normal" in="SourceGraphic" in2="effect1_dropShadow_1229_116" result="shape"/>
</filter>
<filter id="filter7_d_1229_116" x="16" y="5.5" width="23" height="20" filterUnits="userSpaceOnUse" color-interpolation-filters="sRGB">
<feFlood flood-opacity="0" result="BackgroundImageFix"/>
<feColorMatrix in="SourceAlpha" type="matrix" values="0 0 0 0 0 0 0 0 0 0 0 0 0 0 0 0 0 0 127 0" result="hardAlpha"/>
<feOffset dy="4"/>
<feGaussianBlur stdDeviation="2"/>
<feComposite in2="hardAlpha" operator="out"/>
<feColorMatrix type="matrix" values="0 0 0 0 0 0 0 0 0 0 0 0 0 0 0 0 0 0 0.25 0"/>
<feBlend mode="normal" in2="BackgroundImageFix" result="effect1_dropShadow_1229_116"/>
<feBlend mode="normal" in="SourceGraphic" in2="effect1_dropShadow_1229_116" result="shape"/>
</filter>
<filter id="filter8_d_1229_116" x="38.1631" y="1.97974" width="89.23" height="42.1523" filterUnits="userSpaceOnUse" color-interpolation-filters="sRGB">
<feFlood flood-opacity="0" result="BackgroundImageFix"/>
<feColorMatrix in="SourceAlpha" type="matrix" values="0 0 0 0 0 0 0 0 0 0 0 0 0 0 0 0 0 0 127 0" result="hardAlpha"/>
<feOffset dx="4" dy="3"/>
<feGaussianBlur stdDeviation="2.5"/>
<feComposite in2="hardAlpha" operator="out"/>
<feColorMatrix type="matrix" values="0 0 0 0 0 0 0 0 0 0 0 0 0 0 0 0 0 0 0.25 0"/>
<feBlend mode="normal" in2="BackgroundImageFix" result="effect1_dropShadow_1229_116"/>
<feBlend mode="normal" in="SourceGraphic" in2="effect1_dropShadow_1229_116" result="shape"/>
</filter>
</defs>
</svg>
